<?xml version="1.0" standalone="no"?>
<!DOCTYPE svg PUBLIC "-//W3C//DTD SVG 20010904//EN"
 "http://www.w3.org/TR/2001/REC-SVG-20010904/DTD/svg10.dtd">
<svg version="1.0" xmlns="http://www.w3.org/2000/svg"
 width="460.000000pt" height="460.000000pt" viewBox="0 0 460.000000 460.000000"
 preserveAspectRatio="xMidYMid meet">
<metadata>
Created by potrace 1.11, written by Peter Selinger 2001-2013
</metadata>
<g transform="translate(0.000000,460.000000) scale(0.100000,-0.100000)"
fill="#000000" stroke="none">
<path d="M1179 4486 c-3 -3 -45 -10 -94 -16 -137 -16 -165 -21 -171 -31 -3 -5
-16 -9 -29 -9 -13 0 -27 -4 -30 -10 -3 -5 -17 -10 -31 -10 -13 0 -24 -4 -24
-10 0 -5 -8 -10 -18 -10 -10 0 -27 -7 -38 -15 -10 -8 -27 -15 -36 -15 -10 0
-18 -3 -18 -8 0 -4 -15 -14 -32 -22 -18 -7 -42 -22 -52 -32 -11 -10 -24 -18
-28 -18 -5 0 -23 -13 -41 -30 -18 -16 -35 -30 -39 -30 -10 0 -98 -89 -143
-145 -22 -28 -43 -51 -47 -53 -5 -2 -8 -9 -8 -16 0 -7 -8 -21 -18 -32 -22 -24
-92 -161 -92 -180 0 -8 -4 -14 -10 -14 -5 0 -10 -13 -10 -30 0 -16 -4 -30 -10
-30 -5 0 -10 -11 -10 -24 0 -14 -4 -27 -9 -30 -5 -3 -11 -23 -15 -43 -3 -21
-11 -76 -18 -123 -18 -121 -19 -2294 -1 -2425 23 -163 25 -175 34 -175 5 0 9
-13 9 -30 0 -16 5 -30 10 -30 6 0 10 -9 10 -20 0 -11 4 -28 9 -38 5 -9 22 -44
38 -77 15 -33 31 -61 36 -63 4 -2 7 -12 7 -23 0 -10 4 -19 8 -19 4 0 15 -12
24 -28 29 -48 61 -85 138 -162 76 -76 88 -87 150 -130 19 -13 37 -27 40 -30 3
-3 34 -18 70 -35 36 -16 66 -33 68 -37 2 -5 12 -8 22 -8 10 0 22 -4 25 -10 3
-5 17 -10 31 -10 13 0 24 -4 24 -10 0 -5 11 -10 25 -10 14 0 33 -4 43 -9 65
-35 117 -36 1372 -36 1255 0 1307 1 1372 36 10 5 29 9 43 9 14 0 25 5 25 10 0
6 11 10 24 10 14 0 28 5 31 10 3 6 15 10 25 10 10 0 20 3 22 8 2 4 32 21 68
37 36 17 67 32 70 35 3 3 21 17 40 30 62 43 74 54 150 130 77 77 109 114 138
163 9 15 20 27 24 27 4 0 8 9 8 19 0 11 3 21 8 23 4 2 20 30 35 63 16 33 33
68 38 77 5 10 9 27 9 38 0 11 5 20 10 20 6 0 10 14 10 30 0 17 4 30 9 30 9 0
11 12 34 175 18 131 17 2304 -1 2425 -7 47 -15 102 -18 123 -4 20 -10 40 -15
43 -5 3 -9 16 -9 30 0 13 -4 24 -10 24 -5 0 -10 14 -10 30 0 17 -4 30 -10 30
-5 0 -10 6 -10 14 0 19 -70 156 -92 180 -10 11 -18 25 -18 32 0 7 -3 14 -8 16
-4 2 -25 25 -47 53 -45 56 -133 145 -143 145 -4 0 -21 14 -39 30 -18 17 -36
30 -41 30 -4 0 -17 8 -28 18 -10 10 -34 25 -51 32 -18 8 -33 18 -33 22 0 5 -8
8 -17 8 -10 0 -27 7 -37 15 -11 8 -28 15 -38 15 -10 0 -18 5 -18 10 0 6 -11
10 -24 10 -14 0 -28 5 -31 10 -3 6 -17 10 -30 10 -13 0 -26 4 -29 9 -3 5 -25
12 -48 15 -24 4 -72 11 -108 17 -65 11 -2341 25 -2351 15z m521 -546 c54 -18
78 -31 87 -49 4 -9 10 -371 13 -806 4 -621 8 -798 18 -825 66 -173 141 -243
296 -271 52 -10 77 -10 123 1 60 13 146 48 151 62 2 4 8 8 14 8 29 0 245 209
276 267 9 16 12 228 12 791 l0 768 23 20 c43 38 111 49 297 49 186 0 254 -11
297 -49 l23 -20 0 -825 c0 -856 4 -943 42 -1016 37 -71 103 -91 232 -71 44 7
87 11 96 9 35 -9 45 -61 45 -235 -1 -118 -4 -171 -13 -180 -7 -7 -12 -19 -12
-29 0 -28 -49 -67 -103 -82 -112 -33 -164 -39 -292 -34 -173 6 -252 24 -347
80 -41 24 -138 109 -138 121 0 3 -13 26 -29 52 -17 25 -33 59 -36 75 -4 16
-10 31 -15 34 -4 3 -39 -27 -76 -66 -38 -39 -89 -85 -114 -102 -25 -17 -47
-34 -50 -38 -19 -27 -181 -103 -267 -125 -61 -16 -269 -19 -305 -5 -13 5 -34
12 -48 15 -14 3 -51 21 -84 41 l-59 35 7 -82 c3 -46 11 -130 16 -188 17 -178
24 -606 10 -639 -23 -55 -149 -91 -320 -91 -164 1 -278 29 -317 79 -10 12 -12
378 -13 1637 l0 1621 25 25 c23 24 84 43 165 52 65 8 335 -3 370 -14z"/>
</g>
</svg>
